<?xml version="1.0" encoding="UTF-8" standalone="no"?>
<!DOCTYPE svg PUBLIC "-//W3C//DTD SVG 1.1//EN"
 "http://www.w3.org/Graphics/SVG/1.1/DTD/svg11.dtd">
<!-- Generated by graphviz version 2.43.0 (0)
 -->
<!-- Title: %3 Pages: 1 -->
<svg width="351pt" height="238pt"
 viewBox="0.00 0.00 351.00 237.74" xmlns="http://www.w3.org/2000/svg" xmlns:xlink="http://www.w3.org/1999/xlink">
<g id="graph0" class="graph" transform="scale(1 1) rotate(0) translate(36 201.74)">
<title>%3</title>
<polygon fill="dimgray" stroke="transparent" points="-36,36 -36,-201.74 315,-201.74 315,36 -36,36"/>
<text text-anchor="middle" x="139.5" y="-150.54" font-family="Helvetica,sans-Serif" font-size="14.00">Sweep&#39;s Plan &amp; Progress</text>
<!-- start -->
<g id="node1" class="node">
<title>start</title>
</g>
<!-- b3eab7c7&#45;c259&#45;44fe&#45;9c4a&#45;0749dee75fe8 -->
<g id="node3" class="node">
<title>b3eab7c7&#45;c259&#45;44fe&#45;9c4a&#45;0749dee75fe8</title>
<ellipse fill="#0ee832" stroke="black" cx="139.5" cy="-99.87" rx="59.29" ry="26.74"/>
<text text-anchor="middle" x="139.5" y="-103.67" font-family="Helvetica,sans-Serif" font-size="14.00">✓ Modify</text>
<text text-anchor="middle" x="139.5" y="-88.67" font-family="Helvetica,sans-Serif" font-size="14.00">styles.css</text>
</g>
<!-- start&#45;&gt;b3eab7c7&#45;c259&#45;44fe&#45;9c4a&#45;0749dee75fe8 -->
<g id="edge2" class="edge">
<title>start&#45;&gt;b3eab7c7&#45;c259&#45;44fe&#45;9c4a&#45;0749dee75fe8</title>
<path fill="none" stroke="black" d="M29.21,-99.87C32.84,-99.87 49.97,-99.87 69.69,-99.87"/>
<polygon fill="black" stroke="black" points="69.85,-103.37 79.85,-99.87 69.85,-96.37 69.85,-103.37"/>
<text text-anchor="middle" x="54.55" y="-106.67" font-family="Helvetica,sans-Serif" font-size="14.00">Start</text>
</g>
<!-- end -->
<g id="node2" class="node">
<title>end</title>
</g>
<!-- b3eab7c7&#45;c259&#45;44fe&#45;9c4a&#45;0749dee75fe8&#45;&gt;end -->
<g id="edge3" class="edge">
<title>b3eab7c7&#45;c259&#45;44fe&#45;9c4a&#45;0749dee75fe8&#45;&gt;end</title>
<path fill="none" stroke="black" d="M199.03,-99.87C216.83,-99.87 234.51,-99.87 245.46,-99.87"/>
<polygon fill="black" stroke="black" points="245.77,-103.37 255.77,-99.87 245.77,-96.37 245.77,-103.37"/>
<text text-anchor="middle" x="227.45" y="-106.67" font-family="Helvetica,sans-Serif" font-size="14.00">Finish</text>
</g>
<!-- 4c24f085&#45;3ba1&#45;474d&#45;a5ca&#45;1a39d2da222f -->
<g id="node4" class="node">
<title>4c24f085&#45;3ba1&#45;474d&#45;a5ca&#45;1a39d2da222f</title>
<polygon fill="yellow" stroke="black" points="279,-36 0,-36 0,0 279,0 279,-36"/>
<text text-anchor="middle" x="139.5" y="-14.3" font-family="Helvetica,sans-Serif" font-size="14.00">⋯ Run GitHub Actions for `styles.css`</text>
</g>
<!-- b3eab7c7&#45;c259&#45;44fe&#45;9c4a&#45;0749dee75fe8&#45;&gt;4c24f085&#45;3ba1&#45;474d&#45;a5ca&#45;1a39d2da222f -->
<g id="edge1" class="edge">
<title>b3eab7c7&#45;c259&#45;44fe&#45;9c4a&#45;0749dee75fe8&#45;&gt;4c24f085&#45;3ba1&#45;474d&#45;a5ca&#45;1a39d2da222f</title>
<path fill="none" stroke="black" stroke-dasharray="5,2" d="M139.5,-72.72C139.5,-64.27 139.5,-54.89 139.5,-46.36"/>
<polygon fill="black" stroke="black" points="143,-46.15 139.5,-36.15 136,-46.15 143,-46.15"/>
</g>
</g>
</svg>
