<?xml version="1.0" encoding="UTF-8" standalone="no"?>
<!DOCTYPE svg PUBLIC "-//W3C//DTD SVG 1.1//EN"
 "http://www.w3.org/Graphics/SVG/1.1/DTD/svg11.dtd">
<!-- Generated by graphviz version 2.43.0 (0)
 -->
<!-- Title: %3 Pages: 1 -->
<svg width="349pt" height="238pt"
 viewBox="0.00 0.00 349.00 237.74" xmlns="http://www.w3.org/2000/svg" xmlns:xlink="http://www.w3.org/1999/xlink">
<g id="graph0" class="graph" transform="scale(1 1) rotate(0) translate(36 201.74)">
<title>%3</title>
<polygon fill="dimgray" stroke="transparent" points="-36,36 -36,-201.74 313,-201.74 313,36 -36,36"/>
<text text-anchor="middle" x="138.5" y="-150.54" font-family="Helvetica,sans-Serif" font-size="14.00">Sweep&#39;s Plan &amp; Progress</text>
<!-- start -->
<g id="node1" class="node">
<title>start</title>
</g>
<!-- b3eab7c7&#45;c259&#45;44fe&#45;9c4a&#45;0749dee75fe8 -->
<g id="node3" class="node">
<title>b3eab7c7&#45;c259&#45;44fe&#45;9c4a&#45;0749dee75fe8</title>
<ellipse fill="#0ee832" stroke="black" cx="138.5" cy="-99.87" rx="59.29" ry="26.74"/>
<text text-anchor="middle" x="138.5" y="-103.67" font-family="Helvetica,sans-Serif" font-size="14.00">✓ Modify</text>
<text text-anchor="middle" x="138.5" y="-88.67" font-family="Helvetica,sans-Serif" font-size="14.00">styles.css</text>
</g>
<!-- start&#45;&gt;b3eab7c7&#45;c259&#45;44fe&#45;9c4a&#45;0749dee75fe8 -->
<g id="edge2" class="edge">
<title>start&#45;&gt;b3eab7c7&#45;c259&#45;44fe&#45;9c4a&#45;0749dee75fe8</title>
<path fill="none" stroke="black" d="M28.21,-99.87C31.84,-99.87 48.97,-99.87 68.69,-99.87"/>
<polygon fill="black" stroke="black" points="68.85,-103.37 78.85,-99.87 68.85,-96.37 68.85,-103.37"/>
<text text-anchor="middle" x="53.55" y="-106.67" font-family="Helvetica,sans-Serif" font-size="14.00">Start</text>
</g>
<!-- end -->
<g id="node2" class="node">
<title>end</title>
</g>
<!-- b3eab7c7&#45;c259&#45;44fe&#45;9c4a&#45;0749dee75fe8&#45;&gt;end -->
<g id="edge3" class="edge">
<title>b3eab7c7&#45;c259&#45;44fe&#45;9c4a&#45;0749dee75fe8&#45;&gt;end</title>
<path fill="none" stroke="black" d="M198.03,-99.87C215.83,-99.87 233.51,-99.87 244.46,-99.87"/>
<polygon fill="black" stroke="black" points="244.77,-103.37 254.77,-99.87 244.77,-96.37 244.77,-103.37"/>
<text text-anchor="middle" x="226.45" y="-106.67" font-family="Helvetica,sans-Serif" font-size="14.00">Finish</text>
</g>
<!-- 4c24f085&#45;3ba1&#45;474d&#45;a5ca&#45;1a39d2da222f -->
<g id="node4" class="node">
<title>4c24f085&#45;3ba1&#45;474d&#45;a5ca&#45;1a39d2da222f</title>
<polygon fill="#0ee832" stroke="black" points="277,-36 0,-36 0,0 277,0 277,-36"/>
<text text-anchor="middle" x="138.5" y="-14.3" font-family="Helvetica,sans-Serif" font-size="14.00">✓ Run GitHub Actions for `styles.css`</text>
</g>
<!-- b3eab7c7&#45;c259&#45;44fe&#45;9c4a&#45;0749dee75fe8&#45;&gt;4c24f085&#45;3ba1&#45;474d&#45;a5ca&#45;1a39d2da222f -->
<g id="edge1" class="edge">
<title>b3eab7c7&#45;c259&#45;44fe&#45;9c4a&#45;0749dee75fe8&#45;&gt;4c24f085&#45;3ba1&#45;474d&#45;a5ca&#45;1a39d2da222f</title>
<path fill="none" stroke="black" stroke-dasharray="5,2" d="M138.5,-72.72C138.5,-64.27 138.5,-54.89 138.5,-46.36"/>
<polygon fill="black" stroke="black" points="142,-46.15 138.5,-36.15 135,-46.15 142,-46.15"/>
</g>
</g>
</svg>
